HIERARCHY
ROOT Hips
{
  OFFSET 0.000000 0.000000 0.000000
  CHANNELS 6 Xposition Yposition Zposition Xrotation Yrotation Zrotation
  JOINT Spine
  {
    OFFSET 0.881470 21.810334 -9.076147
    CHANNELS 3 Xrotation Yrotation Zrotation
    JOINT Chest
    {
      OFFSET 0.881470 21.810334 -9.076147
      CHANNELS 3 Xrotation Yrotation Zrotation
      JOINT Neck
      {
        OFFSET 0.104826 4.674388 -8.995672
        CHANNELS 3 Xrotation Yrotation Zrotation
        JOINT Head
        {
          OFFSET 0.551680 4.678088 -12.550828
          CHANNELS 3 Xrotation Yrotation Zrotation
          End Site
          {
            OFFSET 0.165504 1.403426 -3.765248
          }
        }
      }
      JOINT LeftCollar
      {
        OFFSET 3.000000 4.000000 0.000000
        CHANNELS 3 Xrotation Yrotation Zrotation
        JOINT LeftShoulder
        {
          OFFSET 15.792676 -2.209392 -1.224738
          CHANNELS 3 Xrotation Yrotation Zrotation
          JOINT LeftArm
          {
            OFFSET 3.082085 -20.340128 -8.765461
            CHANNELS 3 Xrotation Yrotation Zrotation
            JOINT LeftForeArm
            {
              OFFSET -6.633304 3.932203 -15.582597
              CHANNELS 3 Xrotation Yrotation Zrotation
              JOINT LeftHand
              {
                OFFSET -2.474855 3.119097 -1.955211
                CHANNELS 3 Xrotation Yrotation Zrotation
                End Site
                {
                  OFFSET -0.742457 0.935729 -0.586563
                }
              }
            }
          }
        }
      }
      JOINT RightCollar
      {
        OFFSET -3.000000 4.000000 0.000000
        CHANNELS 3 Xrotation Yrotation Zrotation
        JOINT RightShoulder
        {
          OFFSET -15.792676 2.209392 1.224738
          CHANNELS 3 Xrotation Yrotation Zrotation
          JOINT RightArm
          {
            OFFSET -2.495612 -27.698627 -14.139695
            CHANNELS 3 Xrotation Yrotation Zrotation
            JOINT RightForeArm
            {
              OFFSET 9.302673 7.642058 -20.278665
              CHANNELS 3 Xrotation Yrotation Zrotation
              JOINT RightHand
              {
                OFFSET 4.807220 4.843324 -4.521461
                CHANNELS 3 Xrotation Yrotation Zrotation
                End Site
                {
                  OFFSET 1.442166 1.452997 -1.356438
                }
              }
            }
          }
        }
      }
    }
  }
  JOINT LeftUpLeg
  {
    OFFSET 10.328032 0.296165 2.790499
    CHANNELS 3 Xrotation Yrotation Zrotation
    JOINT LeftLeg
    {
      OFFSET 12.238276 -41.735834 -6.323935
      CHANNELS 3 Xrotation Yrotation Zrotation
      JOINT LeftFoot
      {
        OFFSET 10.938167 -37.656560 14.235581
        CHANNELS 3 Xrotation Yrotation Zrotation
        End Site
        {
          OFFSET 3.281450 -11.296968 4.270674
        }
      }
    }
  }
  JOINT RightUpLeg
  {
    OFFSET -10.328032 -0.296165 -2.790499
    CHANNELS 3 Xrotation Yrotation Zrotation
    JOINT RightLeg
    {
      OFFSET -6.716455 -33.878452 3.035436
      CHANNELS 3 Xrotation Yrotation Zrotation
      JOINT RightFoot
      {
        OFFSET -13.584754 -38.742798 13.536227
        CHANNELS 3 Xrotation Yrotation Zrotation
        End Site
        {
          OFFSET -4.075426 -11.622839 4.060868
        }
      }
    }
  }
}
MOTION
Frames: 14
Frame Time: 0.083333
-1.632332 57.473749 -3.960332 -3.233544 -0.847175 -2.173491 0.000000 0.000000 0.000000 -0.659338 -1.368683 1.298413 -0.610520 0.697261 0.374757 164.036204 11.790599 -4.855971 2.981807 -4.055772 -6.333360 9.387522 -0.214070 13.233153 5.801192 1.592745 -8.201767 0.000000 0.000000 0.000000 0.000000 0.000000 0.000000 2.981807 -4.055772 -6.333360 7.606433 -0.080964 11.496337 6.829498 4.491232 -6.146721 0.000000 0.000000 0.000000 0.000000 0.000000 0.000000 7.070660 1.444990 5.191429 -1.472302 0.188743 -4.363000 0.000000 0.000000 0.000000 21.789690 -2.140521 -5.976085 -36.592872 3.802624 6.529517 0.000000 0.000000 0.000000
-1.949968 57.209135 -3.150596 -2.169165 -0.554860 -1.442459 0.000000 0.000000 0.000000 -1.803171 -0.755254 0.915838 -0.547091 0.797993 0.252281 167.611840 8.095832 -8.590714 3.302441 -2.772349 -4.386339 16.834297 -9.313579 17.183754 -4.862647 10.473297 -13.510776 0.000000 0.000000 0.000000 0.000000 0.000000 0.000000 3.302441 -2.772349 -4.386339 7.729764 -0.425565 2.459847 3.785670 2.504281 -0.685633 0.000000 0.000000 0.000000 0.000000 0.000000 0.000000 5.304724 0.665949 3.384324 0.046439 0.611811 -3.856459 0.000000 0.000000 0.000000 20.238064 -3.299179 -7.963778 -36.398578 3.820460 7.952440 0.000000 0.000000 0.000000
-2.509492 56.755487 -2.820187 -0.428325 0.087879 0.305115 0.000000 0.000000 0.000000 -3.662374 0.911223 -0.025919 -0.367919 0.645327 -0.125793 171.029706 4.110149 -14.751590 3.999579 -2.234058 -0.814391 20.577234 -26.987245 23.700261 -16.004968 21.262484 -17.116384 0.000000 0.000000 0.000000 0.000000 0.000000 0.000000 3.999579 -2.234058 -0.814391 7.195815 -4.464536 -4.530141 0.960014 2.397930 1.127281 0.000000 0.000000 0.000000 0.000000 0.000000 0.000000 -0.426924 0.080681 0.374613 1.341329 1.018480 -3.142858 0.000000 0.000000 0.000000 15.104629 -4.544600 -11.707222 -36.103171 3.555080 10.306740 0.000000 0.000000 0.000000
-3.037718 56.405356 -2.480089 4.944085 0.828799 3.149721 0.000000 0.000000 0.000000 -8.576966 2.816104 -2.097966 -0.389388 0.533962 -0.473267 170.448482 -1.865319 -20.268251 4.872458 -0.175156 4.457589 44.460327 -13.713719 6.991605 -32.937629 20.932604 -14.356450 0.000000 0.000000 0.000000 0.000000 0.000000 0.000000 4.872458 -0.175156 4.457589 5.519733 -10.386763 -8.048217 -2.154825 3.791839 0.599395 0.000000 0.000000 0.000000 0.000000 0.000000 0.000000 -11.218803 0.825942 -2.733616 2.123055 1.389835 -2.043416 0.000000 0.000000 0.000000 5.323778 -4.569609 -15.925424 -36.039505 3.201042 12.816150 0.000000 0.000000 0.000000
-3.263293 56.519069 -1.951487 15.169060 0.981558 5.983742 0.000000 0.000000 0.000000 -17.923974 4.793987 -4.389726 -0.975130 0.569098 -0.717977 170.631161 -6.993828 -21.580869 5.797374 3.835076 8.842517 41.540303 -10.185574 3.768893 -56.360223 4.534224 -4.312142 0.000000 0.000000 0.000000 0.000000 0.000000 0.000000 5.797374 3.835076 8.842517 3.529682 -13.490099 -7.383861 -3.537215 5.567967 -0.628265 0.000000 0.000000 0.000000 0.000000 0.000000 0.000000 -19.343741 2.222186 -4.062937 4.128474 2.225049 -0.240379 0.000000 0.000000 0.000000 -1.615409 -3.437657 -18.789955 -35.607883 2.742172 15.582309 0.000000 0.000000 0.000000
-3.121003 57.134471 -1.603779 22.447250 0.598343 7.172675 0.000000 0.000000 0.000000 -24.125162 6.494871 -5.031898 -1.634671 1.173683 -0.762519 171.818111 -9.225980 -22.025283 5.646315 6.029411 9.271028 25.972706 -14.724125 3.470472 -42.640088 3.510345 -5.943657 0.000000 0.000000 0.000000 0.000000 0.000000 0.000000 5.646315 6.029411 9.271028 0.230391 -14.723770 -6.619172 -0.015754 5.819714 -1.097320 0.000000 0.000000 0.000000 0.000000 0.000000 0.000000 -19.159338 1.851230 -5.164087 7.585917 3.240553 1.477945 0.000000 0.000000 0.000000 -0.217948 -3.650306 -21.376792 -34.072172 1.905677 19.037261 0.000000 0.000000 0.000000
-2.848605 57.728933 -1.610237 20.860599 0.870334 7.713143 0.000000 0.000000 0.000000 -22.336089 6.507179 -5.526697 -1.312690 1.485353 -0.655298 171.909512 -7.117935 -21.294344 5.846914 7.552203 8.482800 13.396891 -18.564819 7.758935 -21.206975 9.539711 -8.163182 0.000000 0.000000 0.000000 0.000000 0.000000 0.000000 5.846914 7.552203 8.482800 -3.648237 -12.222879 -5.874820 3.892182 5.618499 -2.115857 0.000000 0.000000 0.000000 0.000000 0.000000 0.000000 -13.111078 0.566876 -4.721404 6.899080 3.156563 1.145747 0.000000 0.000000 0.000000 4.792507 -4.576366 -21.997754 -33.416408 1.579712 20.415333 0.000000 0.000000 0.000000
-1.874921 57.829786 -1.626293 15.120847 1.394250 7.476372 0.000000 0.000000 0.000000 -17.542676 4.528139 -5.941343 -0.739880 1.259745 -0.447512 171.065606 -0.704949 -20.575199 6.035118 6.631039 8.124745 6.920784 -10.706428 10.724991 -4.995004 10.561041 -13.870429 0.000000 0.000000 0.000000 0.000000 0.000000 0.000000 6.035118 6.631039 8.124745 -4.299014 -6.858804 -4.560419 0.977771 5.013201 -2.390893 0.000000 0.000000 0.000000 0.000000 0.000000 0.000000 -1.101546 -1.583007 -1.120464 5.055601 2.434261 -3.353379 0.000000 0.000000 0.000000 12.478183 -5.926003 -19.039002 -30.885106 1.612218 17.286052 0.000000 0.000000 0.000000
-0.043825 57.580510 -3.065578 5.303152 2.011657 6.096557 0.000000 0.000000 0.000000 -8.698077 0.496102 -5.787420 -0.277386 0.972840 -0.132042 172.004135 17.882148 -17.355836 5.431905 3.896143 7.019902 1.506644 10.295125 15.481581 11.338721 4.287959 -17.569647 0.000000 0.000000 0.000000 0.000000 0.000000 0.000000 5.431905 3.896143 7.019902 -0.156116 7.077541 -3.359416 -2.841803 2.025044 -0.029233 0.000000 0.000000 0.000000 0.000000 0.000000 0.000000 1.509036 -0.879609 3.454969 2.446365 1.593627 -8.079710 0.000000 0.000000 0.000000 7.370047 -4.300707 -13.724550 -24.886029 1.055136 9.050607 0.000000 0.000000 0.000000
1.676339 57.448394 -5.166005 6.271498 1.238716 3.839055 0.000000 0.000000 0.000000 -8.663195 -2.081307 -4.603806 -0.167576 -0.011275 0.048487 171.344687 41.171804 -11.532178 2.057051 -6.160270 3.718803 -0.706406 32.513853 13.894189 22.316852 -1.500267 -16.570358 0.000000 0.000000 0.000000 0.000000 0.000000 0.000000 2.057051 -6.160270 3.718803 1.894815 26.840398 1.368410 1.480008 -6.527360 -1.554478 0.000000 0.000000 0.000000 0.000000 0.000000 0.000000 -7.221039 0.425917 7.745940 3.389808 1.332068 -10.752501 0.000000 0.000000 0.000000 -3.353256 -2.216783 -4.366345 -24.031733 -0.596995 -6.493129 0.000000 0.000000 0.000000
2.370653 57.384688 -6.512255 14.829565 -0.315414 0.295205 0.000000 0.000000 0.000000 -15.177036 -4.163110 -2.434442 -0.166477 -1.540778 0.107720 162.361123 47.609182 -2.936822 -0.517912 -23.013245 -1.510124 -23.794174 52.647238 34.144725 14.914392 -2.929222 -8.764157 0.000000 0.000000 0.000000 0.000000 0.000000 0.000000 -0.517912 -23.013245 -1.510124 3.059161 27.596742 19.752878 6.154320 -24.558663 -16.005262 0.000000 0.000000 0.000000 0.000000 0.000000 0.000000 -15.903202 0.141814 13.997506 5.701963 1.564465 -11.706428 0.000000 0.000000 0.000000 -13.032474 -1.308410 8.732091 -22.231038 -3.067923 -25.498006 0.000000 0.000000 0.000000
2.431444 57.378398 -6.570166 21.838406 -1.794972 -5.047535 0.000000 0.000000 0.000000 -20.249485 -5.823332 2.192283 -0.471306 -2.606317 -0.075224 142.726607 59.519473 15.183100 5.332097 -40.894811 -18.637699 95.571877 3.998863 -81.983413 -38.667980 2.347602 -0.365066 0.000000 0.000000 0.000000 0.000000 0.000000 0.000000 5.332097 -40.894811 -18.637699 18.542355 0.663681 17.099444 -40.632070 -58.574846 -10.930560 0.000000 0.000000 0.000000 0.000000 0.000000 0.000000 -20.814027 -1.455451 19.017365 8.825331 2.016425 -11.601657 0.000000 0.000000 0.000000 -18.143628 -1.817589 10.869394 -20.009131 -5.558143 -26.073224 0.000000 0.000000 0.000000
2.522306 57.419245 -6.655655 25.268816 -2.577799 -9.412239 0.000000 0.000000 0.000000 -23.162393 -7.305638 6.422134 0.176130 -4.975356 -1.218393 116.392291 65.439384 40.768510 30.737414 -59.921632 -68.104184 130.751170 75.336170 -113.272327 -126.210585 12.885941 9.559551 0.000000 0.000000 0.000000 0.000000 0.000000 0.000000 30.737414 -59.921632 -68.104184 63.747376 -21.607610 -47.581333 -155.953177 -78.474983 45.571387 0.000000 0.000000 0.000000 0.000000 0.000000 0.000000 -24.048879 -3.489283 23.855254 10.660039 1.765285 -15.315614 0.000000 0.000000 0.000000 -18.059631 -2.642246 7.608377 -21.280120 -6.324772 -18.666506 0.000000 0.000000 0.000000
2.668802 57.177949 -6.535210 26.770356 -2.921170 -11.864415 0.000000 0.000000 0.000000 -25.857557 -9.429788 8.616182 0.578865 -6.295423 -1.632366 110.107382 65.200292 45.414542 73.983706 -69.826465 -146.081085 159.088565 79.148898 -145.416281 -110.430069 9.707609 5.781301 0.000000 0.000000 0.000000 0.000000 0.000000 0.000000 73.983706 -69.826465 -146.081085 69.862788 10.891809 -23.179647 -85.015692 -62.045975 2.507750 0.000000 0.000000 0.000000 0.000000 0.000000 0.000000 -24.689154 -4.429035 26.898421 11.204377 1.254314 -18.525709 0.000000 0.000000 0.000000 -17.473343 -2.897737 6.549249 -20.635326 -6.947042 -15.641499 0.000000 0.000000 0.000000
